<?xml version="1.0" encoding="UTF-8" standalone="no"?>
<svg
   xmlns:dc="http://purl.org/dc/elements/1.1/"
   xmlns:cc="http://creativecommons.org/ns#"
   xmlns:rdf="http://www.w3.org/1999/02/22-rdf-syntax-ns#"
   xmlns:svg="http://www.w3.org/2000/svg"
   xmlns="http://www.w3.org/2000/svg"
   viewBox="0 0 595.56439 595.56439"
   height="595.56439"
   width="595.56439"
   xml:space="preserve"
   version="1.1"
   id="svg2"><metadata
     id="metadata8"><rdf:RDF><cc:Work
         rdf:about=""><dc:format>image/svg+xml</dc:format><dc:type
           rdf:resource="http://purl.org/dc/dcmitype/StillImage" /><dc:title></dc:title></cc:Work></rdf:RDF></metadata><defs
     id="defs6"><clipPath
       id="clipPath16"
       clipPathUnits="userSpaceOnUse"><path
         id="path18"
         d="m 0,517.008 517.008,0 L 517.008,0 0,0 0,517.008 Z" /></clipPath></defs><g
     transform="matrix(1.25,0,0,-1.25,-95.272375,620.91188)"
     id="g10"><g
       transform="translate(62.884757,0)"
       id="g12"><g
         clip-path="url(#clipPath16)"
         id="g14"><g
           transform="translate(389.1699,102.499)"
           id="g20"><path
             id="path22"
             style="fill:#3a3c45;fill-opacity:1;fill-rule:nonzero;stroke:none"
             d="m 0,0 c -3.164,0 -5.729,3.506 -5.729,7.832 l 0,2.535 c 0,4.324 2.565,7.834 5.729,7.834 l 37.73,0 0,31.988 -37.73,0 c -3.164,0 -5.729,3.51 -5.729,7.832 l 0,2.538 c 0,4.324 2.565,7.832 5.729,7.832 l 37.73,0 0,30.334 -37.73,0 c -3.164,0 -5.729,3.507 -5.729,7.834 l 0,2.535 c 0,4.324 2.565,7.832 5.729,7.832 l 37.73,0 0,73.393 c 0,25.539 -15.377,46.242 -34.348,46.242 l -281.986,0 c -18.97,0 -34.348,-20.703 -34.348,-46.242 l 0,-72.434 41.379,0 c 2.941,0 5.327,-4.215 5.327,-9.41 0,-5.2 -2.386,-9.412 -5.327,-9.412 l -41.379,0 0,-29.782 41.379,0 c 2.941,0 5.327,-4.213 5.327,-9.412 0,-5.197 -2.386,-9.41 -5.327,-9.41 l -41.379,0 0,-31.717 41.379,0 c 2.941,0 5.327,-4.213 5.327,-9.408 0,-5.201 -2.386,-9.414 -5.327,-9.414 l -41.379,0 0,-35.902 c 0,-25.538 15.378,-46.239 34.348,-46.239 l 281.986,0 c 18.971,0 34.348,20.701 34.348,46.239 L 37.73,0 0,0 Z" /></g><g
           transform="translate(319.0498,496.7295)"
           id="g24"><path
             id="path26"
             style="fill:#6e152f;fill-opacity:1;fill-rule:nonzero;stroke:none"
             d="m 0,0 -129.002,0 c -38.195,0 -69.16,-40.758 -69.16,-91.034 l 0,-67.805 33.416,0 0,42.459 c 0,37.707 23.223,68.276 51.87,68.276 l 96.751,0 c 28.646,0 51.87,-30.569 51.87,-68.276 l 0,-42.459 33.379,0 0,-16.595 c 0.012,0.58 0.035,1.156 0.035,1.737 l 0,82.663 C 69.159,-40.758 38.195,0 0,0" /></g><g
           transform="translate(120.8877,321.3438)"
           id="g28"><path
             id="path30"
             style="fill:#ffffff;fill-opacity:1;fill-rule:nonzero;stroke:none"
             d="M 0,0 0.032,0 C 0.025,0.564 0,1.123 0,1.688 L 0,0 Z" /></g><g
           transform="translate(120.8877,295.2012)"
           id="g32"><path
             id="path34"
             style="fill:#ffffff;fill-opacity:1;fill-rule:nonzero;stroke:none"
             d="m 0,0 c 0,-1.591 0.025,-3.156 0.032,-4.74 l 33.384,0 0,46.433 L 0,41.693 0,0 Z" /></g><g
           transform="translate(354.7949,321.3438)"
           id="g36"><path
             id="path38"
             style="fill:#ffffff;fill-opacity:1;fill-rule:nonzero;stroke:none"
             d="m 0,0 0,-0.048 33.379,0 C 32.878,-0.024 32.376,0 31.871,0 L 0,0 Z" /></g><g
           transform="translate(354.7949,336.9678)"
           id="g40"><path
             id="path42"
             style="fill:#ffffff;fill-opacity:1;fill-rule:nonzero;stroke:none"
             d="m 0,0 0,-45.499 31.871,0 c 0.505,0 1.007,-0.068 1.508,-0.131 L 33.379,0 0,0 Z" /></g><g
           transform="translate(301.1982,184.0029)"
           id="g44"><path
             id="path46"
             style="fill:#ffffff;fill-opacity:1;fill-rule:nonzero;stroke:none"
             d="m 0,0 c 0,26.543 -21.978,48.061 -49.088,48.061 -27.11,0 -49.086,-21.518 -49.086,-48.061 0,-21.855 14.903,-40.289 35.297,-46.127 l 0,-37.307 27.579,0 0,37.307 C -14.903,-40.289 0,-21.855 0,0" /></g></g></g></g></svg>